<svg xmlns="http://www.w3.org/2000/svg" viewBox="0 0 100 100" fill="none" stroke="currentColor" stroke-width="3" stroke-linecap="round" stroke-linejoin="round">
  <path d="M50 22 L50 84"/>
  <path d="M50 22 C40 16, 22 16, 14 20 L14 78 C22 74, 40 74, 50 80" fill="currentColor" fill-opacity="0.12"/>
  <path d="M50 22 C60 16, 78 16, 86 20 L86 78 C78 74, 60 74, 50 80" fill="currentColor" fill-opacity="0.12"/>
  <path d="M22 32 L40 32"/>
  <path d="M22 42 L40 42"/>
  <path d="M22 52 L40 52"/>
  <path d="M60 32 L78 32"/>
  <path d="M60 42 L78 42"/>
  <path d="M60 52 L78 52"/>
</svg>
