<svg xmlns="http://www.w3.org/2000/svg" viewBox="0 0 100 100" fill="none" stroke="currentColor" stroke-width="1.5">
  <circle cx="50" cy="50" r="36" stroke="currentColor" stroke-opacity="0.3"/>
  <path d="M50 50 L86 50 A 36 36 0 0 0 76.7 27.3 Z" fill="currentColor" fill-opacity="0.85"/>
  <path d="M50 50 L76.7 27.3 A 36 36 0 0 0 50 14 Z" fill="currentColor" fill-opacity="0.65"/>
  <path d="M50 50 L50 14 A 36 36 0 0 0 23.3 27.3 Z" fill="currentColor" fill-opacity="0.45"/>
  <path d="M50 50 L23.3 27.3 A 36 36 0 0 0 16 47 Z" fill="currentColor" fill-opacity="0.55"/>
  <path d="M50 50 L16 47 A 36 36 0 0 0 22 71 Z" fill="currentColor" fill-opacity="0.75"/>
  <path d="M50 50 L22 71 A 36 36 0 0 0 45 86 Z" fill="currentColor" fill-opacity="0.35"/>
  <path d="M50 50 L45 86 A 36 36 0 0 0 70 82 Z" fill="currentColor" fill-opacity="0.25"/>
  <path d="M50 50 L70 82 A 36 36 0 0 0 86 50 Z" fill="currentColor" fill-opacity="0.45"/>
</svg>
