<svg xmlns="http://www.w3.org/2000/svg" viewBox="0 0 100 100" fill="none" stroke="currentColor" stroke-width="3" stroke-linecap="round" stroke-linejoin="round">
  <path d="M20 18 C20 12, 28 8, 36 12 L72 12 C80 8, 88 12, 88 18 L88 22 C88 28, 80 32, 72 28 L36 28 C28 32, 20 28, 20 22 Z" fill="currentColor" fill-opacity="0.18"/>
  <path d="M28 28 L28 72"/>
  <path d="M80 28 L80 72"/>
  <path d="M28 72 C28 78, 36 82, 44 78 L80 78"/>
  <path d="M40 40 L70 40"/>
  <path d="M40 50 L66 50"/>
  <path d="M40 60 L72 60"/>
</svg>
